/* XPM */
static char *result[] = {
/* columns rows colors chars-per-pixel */
"128 128 8 1 ",
"  c #141412",
". c #0F1A1B",
"X c #1D2E30",
"o c #162527",
"O c #243A3C",
"+ c #607897",
"@ c #2B3037",
"# c #2A4345",
/* pixels */
"   ..........................................................................................................................XXX",
"   ..........................................................................................................................XXX",
"   ..........................................................................................................................XXX",
"   ooooooooooooooooo...oooXXoooXXoooooooo...ooooooo...oo...oo...oooooooooooooooooo..oooooooo...oo...oo...oooooooooooooooooo..OOO",
"   ooooooooooooooooo...oooXXoooXXoooooooo...ooooooo...oo...oo...oooooooooooooooooo..oooooooo...oo...oo...oooooooooooooooooo..OOO",
"   ooooooooooooooooo...oooXXoooXXoooooooo...ooooooo...oo...oo...oooooooooooooooooo..oooooooo...oo...oo...oooooooooooooooooo..OOO",
"   ooooooooooooooooo...oooXXoooXXoooooooo...ooooooo...oo...oo...oooooooooooooooooo..oooooooo...oo...oo...oooooooooooooooooo..OOO",
"   ooooooooooooooooo...oooXXoooXXoooooooo...ooooooo...oo...oo...oooooooooooooooooo..oooooooo...oo...oo...oooooooooooooooooo..OOO",
"   oooooXXXXXXXXXXXX...XXXXXXXXXXXXXXXXXX...XXXXXXXXXXXXXXXXX...XXXXXXXXXXXXXXXXXX..XXXXXXXXXXXXXXXXXX...oooooooooooooooooo..OOO",
"   oooooXXXXXXXXXXXX...XXXXXXXXXXXXXXXXXX...XXXXXXXXXXXXXXXXX...XXXXXXXXXXXXXXXXXX..XXXXXXXXXXXXXXXXXX...oooooooooooooooooo..OOO",
"   oooooXXXXXXXXXXXXoooXXXXXXXXXXXXXXXXXXoooXXXXXXXXXXXXXXXXXoooXXXXXXXXXXXXXXXXXXooXXXXXXXXXXXXXXXXXX...oooooooooooooooooo..OOO",
"   oooooXXXXXXXXXXXXoooXXXXXXXXXXXXXXXXXXoooXXXXXXXXXXXXXXXXXoooXXXXXXXXXXXXXXXXXXooXXXXXXXXXXXXXXXXXX...oooooooooooooooooo..OOO",
"   oooooXXXXXXXXXXXXoooXXXXXXXXXXXXXXXXXXoooXXXXXXXXXXXXXXXXXoooXXXXXXXXXXXXXXXXXXooXXXXXXXXXXXXXXXXXX...oooooooooooooooooo..OOO",
"   oooooXXXXXXXXXXXXoooXXXXXXXXXXXXXXXXXXoooXXXXXXXXXXXXXXXXXoooXXXXXXXXXXXXXXXXXXooXXXXXXXXXXXXXXXXXX...oooooooooooooooooo..OOO",
"   oooooXXXXXXXXXXXXoooXXXXXXXXXXXXXXXXXXoooXXXXXXXXXXXXXXXXXoooXXXXXXXXXXXXXXXXXXooXXXXXXXXXXXXXXXXXX...oooooooooooooooooo..OOO",
"   XXXXXXXXXXXXXXXXXoooXXXXXXXXXXXXXXXXXXoooXXXXXXXXXXXXXXXXXoooXXXXXXXXXXXXXXXXXXooXXXXXXXXXXXXXXXXXX...oooooooooooooooooo..OOO",
"   XXXXXXXXXXXXXXXXXoooXXXXXXXXXXXXXXXXXXoooXXXXXXXXXXXXXXXXXoooXXXXXXXXXXXXXXXXXXooXXXXXXXXXXXXXXXXXX...oooooooooooooooooo..OOO",
"   XXXXXXXXXXXXXXXXXoooXXXXXXXXXXXXXXXXXXoooXXXXXXXXXXXXXXXXXoooXXXXXXXXXXXXXXXXXXooXXXXXXXXXXXXXXXXXX...oooooooooooooooooo..OOO",
"   oooooXXXXXXXXXXXXoooOOOOOOOOOOOOOOOOOOoooXXXXXXXXXXXXXXXXXoooOOOOOOOOOOOOOOOOOOooXXXXXXXXXXXXXXXXXX...XXXXXXXXXXXXXXXXXX..OOO",
"   oooooXXXXXXXXXXXXoooOOOOOOOOOOOOOOOOOOoooXXXXXXXXXXXXXXXXXoooOOOOOOOOOOOOOOOOOOooXXXXXXXXXXXXXXXXXX...XXXXXXXXXXXXXXXXXX..OOO",
"   .......ooooooooooooooooooooooooooooooooooooooooooooooooooooooooooooooooooooooooooooooooooooooo............................XXX",
"   .......ooooooooooooooooooooooooooooooooooooooooooooooooooooooooooooooooooooooooooooooooooooooo............................XXX",
"   .......ooooooooooooooooooooooooooooooooooooooooooooooooooooooooooooooooooooooooooooooooooooooo............................XXX",
"   oooooXXXXXXXXXXOOoooOOOOOOOOOOOOOOOOOOoooXXXXXXXXXXXXXXXXXoooOOOOOOOOOOOOOOOOOOXXOOOOOOOOOOOOOOOOOO...XXXXXXXXXXXXXXXXXX..OOO",
"   oooooXXXXXXXXXXOOoooOOOOOOOOOOOOOOOOOOoooXXXXXXXXXXXXXXXXXoooOOOOOOOOOOOOOOOOOOXXOOOOOOOOOOOOOOOOOO...XXXXXXXXXXXXXXXXXX..OOO",
"   oooooXXXXXXXXXXOOoooOOOOOOOOOOOOOOOOOOoooXXXXXXXXXXXXXXXXXoooOOOOOOOOOOOOOOOOOOXXOOOOOOOOOOOOOOOOOO...XXXXXXXXXXXXXXXXXX..OOO",
"   XXXXXXXXXXXXXXXOOoooOOOOOOOOOOOOOOOOOOoooOOOOOOOOOOOOOOOOOoooOOOOOOOOOOOOOOOOOOXXOOOOOOOOOOOOOOOOOO...XXXXXXXXXXXXXXXXXX..OOO",
"   XXXXXXXXXXXXXXXOOoooOOOOOOOOOOOOOOOOOOoooOOOOOOOOOOOOOOOOOoooOOOOOOOOOOOOOOOOOOXXOOOOOOOOOOOOOOOOOO...XXXXXXXXXXXXXXXXXX..OOO",
"+++oooooXXXXXXXXXXOOoooOOOOOOOOOOOOOOOOOOXXXOOOOOOOOOOOOOOOOOXXXOOOOOOOOOOOOOOOOOOXXOOOOOOOOOOOOOOOOOOoooXXXXXXXXXXXXXXXXXX..OOO",
"+++oooooXXXXXXXXXXOOoooOOOOOOOOOOOOOOOOOOXXXOOOOOOOOOOOOOOOOOXXXOOOOOOOOOOOOOOOOOOXXOOOOOOOOOOOOOOOOOOoooXXXXXXXXXXXXXXXXXX..OOO",
"+++oooooXXXXXXXXXXOOoooOOOOOOOOOOOOOOOOOOXXXOOOOOOOOOOOOOOOOOXXXOOOOOOOOOOOOOOOOOOXXOOOOOOOOOOOOOOOOOOoooXXXXXXXXXXXXXXXXXX..OOO",
"+++oooooXXXXXXXXXXOOoooOOOOOOOOOOOOOOOOOOXXXOOOOOOOOOOOOOOOOOXXXOOOOOOOOOOOOOOOOOOXXOOOOOOOOOOOOOOOOOOoooXXXXXXXXXXXXXXXXXX..OOO",
"+++oooooXXXXXXXXXXOOoooOOOOOOOOOOOOOOOOOOXXXOOOOOOOOOOOOOOOOOXXXOOOOOOOOOOOOOOOOOOXXOOOOOOOOOOOOOOOOOOoooXXXXXXXXXXXXXXXXXX..OOO",
"@@@oooooXXXXXXXXXXOOoooOOOOOOOOOOOOOOOOOOXXXOOOOOOOOOOOOOOOOOXXXOOOOOOOOOOOOOOOOOOXXOOOOOOOOOOOOOOOOOOoooXXXXXXXXXXXXXXXXXX..OOO",
"@@@oooooXXXXXXXXXXOOoooOOOOOOOOOOOOOOOOOOXXXOOOOOOOOOOOOOOOOOXXXOOOOOOOOOOOOOOOOOOXXOOOOOOOOOOOOOOOOOOoooXXXXXXXXXXXXXXXXXX..OOO",
"@@@oooooXXXXXXXXXXOOoooOOOOOOOOOOOOOOOOOOXXXOOOOOOOOOOOOOOOOOXXXOOOOOOOOOOOOOOOOOOXXOOOOOOOOOOOOOOOOOOoooXXXXXXXXXXXXXXXXXX..OOO",
"@@@oooooXXXXXXXXXXOOoooOOOOOOOOOOOOOOOOOOXXXOOOOOOOOOOOOOOOOOXXXOOOOOOOOOOOOOOOOOOXXOOOOOOOOOOOOOOOOOOoooXXXXXXXXXXXXXXXXXX..OOO",
"@@@oooooXXXXXXXXXXOOoooOOOOOOOOOOOOOOOOOOXXXOOOOOOOOOOOOOOOOOXXXOOOOOOOOOOOOOOOOOOXXOOOOOOOOOOOOOOOOOOoooXXXXXXXXXXXXXXXXXX..OOO",
"@@@oooooXXXXXXXXXXOOoooOOOOOOOOOOOOOOOOOOXXXOOOOOOOOOOOOOOOOOXXXOOOOOOOOOOOOOOOOOOXXOOOOOOOOOOOOOOOOOOoooXXXXXXXXXXXXXXXXXX..OOO",
"@@@oooooXXXXXXXXXXOOoooOOOOOOOOOOOOOOOOOOXXXOOOOOOOOOOOOOOOOOXXXOOOOOOOOOOOOOOOOOOXXOOOOOOOOOOOOOOOOOOoooXXXXXXXXXXXXXXXXXX..OOO",
"@@@oooooXXXXXXXXXXOOoooOOOOOOOOOOOOOOOOOOXXXOOOOOOOOOOOOOOOOOXXXOOOOOOOOOOOOOOOOOOXXOOOOOOOOOOOOOOOOOOoooXXXXXXXXXXXXXXXXXX..OOO",
"   .......oooooooooooooXXXXXXXXXXXXXXXXXXXXXXXXXXXXXXXXXXXXXXXXXXXXXXXXXXXXXXXXXXXXXXXXXXXXXXXXXXXXXXXoooooooooooooooo.......XXX",
"   .......oooooooooooooXXXXXXXXXXXXXXXXXXXXXXXXXXXXXXXXXXXXXXXXXXXXXXXXXXXXXXXXXXXXXXXXXXXXXXXXXXXXXXXoooooooooooooooo.......XXX",
"   .......oooooooooooooXXXXXXXXXXXXXXXXXXXXXXXXXXXXXXXXXXXXXXXXXXXXXXXXXXXXXXXXXXXXXXXXXXXXXXXXXXXXXXXoooooooooooooooo.......XXX",
"   .....XXXXXXXXXXXXoooOOOOOOOOOOOOOOOOOOXXXOOOOOOOOOOOOOOOOOXXXOOOOOOOOOOOOOOOOOOXXOOOOOOOOOOOOOOOOOOoooOOOXXXXXXXXXXXXXXX..OOO",
"   .....XXXXXXXXXXXXoooOOOOOOOOOOOOOOOOOOXXXOOOOOOOOOOOOOOOOOXXXOOOOOOOOOOOOOOOOOOXXOOOOOOOOOOOOOOOOOOoooOOOXXXXXXXXXXXXXXX..OOO",
"   .....XXXXXXXXXXXXoooOOOOOOOOOOOOOOOOOOXXXOOOOOOOOOOOOOOOOOXXXOOOOOOOOOOOOOOOOOOXXOOOOOOOOOOOOOOOOOOoooOOOXXXXXXXXXXXXXXX..OOO",
"   .....XXXXXXXXXXXXoooOOOOOOOOOOOOOOOOOOXXXOOOOOOOOOOOOOOOOOXXXOOOOOOOOOOOOOOOOOOXXOOOOOOOOOOOOOOOOOOoooOOOXXXXXXXXXXXXXXX..OOO",
"   .....XXXXXXXXXXXXoooOOOOOOOOOOOOOOOOOOXXXOOOOOOOOOOOOOOOOOXXXOOOOOOOOOOOOOOOOOOXXOOOOOOOOOOOOOOOOOOoooOOOXXXXXXXXXXXXXXX..OOO",
"   oooooXXXXXXXXXXXXoooOOOOOOOOOOOOOOOOOOXXXOOOOOOOOOOOOOOOOOXXXOOOOOOOOOOOOOOOOOOXXOOOOOOOOOOOOOOOOOOoooOOOXXXXXXXXXXXXXXX..OOO",
"   oooooXXXXXXXXXXXXoooOOOOOOOOOOOOOOOOOOXXXOOOOOOOOOOOOOOOOOXXXOOOOOOOOOOOOOOOOOOXXOOOOOOOOOOOOOOOOOOoooOOOXXXXXXXXXXXXXXX..OOO",
"   .....XXXXXXXXXXXXoooOOOOOOOOOOOOOOOOOOXXXOOOOOOOOOOOOOOOOOXXXOOOOOOOOOOOOOOOOOOXXOOOOOOOOOOOOOOOOOOoooOOOXXXXXXXXXXXXXXX..OOO",
"   .....XXXXXXXXXXXXoooOOOOOOOOOOOOOOOOOOXXXOOOOOOOOOOOOOOOOOXXXOOOOOOOOOOOOOOOOOOXXOOOOOOOOOOOOOOOOOOoooOOOXXXXXXXXXXXXXXX..OOO",
"   .....XXXXXXXXXXXXoooOOOOOOOOOOOOOOOOOOXXXOOOOOOOOOOOOOOOOOXXXOOOOOOOOOOOOOOOOOOXXOOOOOOOOOOOOOOOOOOoooOOOXXXXXXXXXXXXXXX..OOO",
"   oooooXXXXXXXXXXXXoooOOOOOOOOOOOOOOOOOOXXXOOOOOOOOOOOOOOOOOXXXOOOOOOOOOOOOOOOOOOXXOOOOOOOOOOOOOOOOOOoooOOOXXXXXXXXXXXXXXX..OOO",
"   oooooXXXXXXXXXXXXoooOOOOOOOOOOOOOOOOOOXXXOOOOOOOOOOOOOOOOOXXXOOOOOOOOOOOOOOOOOOXXOOOOOOOOOOOOOOOOOOoooOOOXXXXXXXXXXXXXXX..OOO",
"   oooooXXXXXXXXXXXXoooOOOOOOOOOOOOOOOOOOXXXOOOOOOOOOOOOOOOOOXXXOOOOOOOOOOOOOOOOOOXXOOOOOOOOOOOOOOOOOO...OOOXXXXXXXXXXXXXXX..OOO",
"   oooooXXXXXXXXXXXXoooOOOOOOOOOOOOOOOOOOXXXOOOOOOOOOOOOOOOOOXXXOOOOOOOOOOOOOOOOOOXXOOOOOOOOOOOOOOOOOO...OOOXXXXXXXXXXXXXXX..OOO",
"   oooooXXXXXXXXXXXXoooOOOOOOOOOOOOOOOOOOXXXOOOOOOOOOOOOOOOOOXXXOOOOOOOOOOOOOOOOOOXXOOOOOOOOOOOOOOOOOO...OOOXXXXXXXXXXXXXXX..OOO",
"   oooooXXXXXXXXXXXXoooOOOOOOOOOOOOOOOOOOXXXOOOOOOOOOOOOOOOOOXXXOOOOOOOOOOOOOOOOOOXXOOOOOOOOOOOOOOOOOO...OOOXXXXXXXXXXXXXXX..OOO",
"   oooooXXXXXXXXXXXXoooOOOOOOOOOOOOOOOOOOXXXOOOOOOOOOOOOOOOOOXXXOOOOOOOOOOOOOOOOOOXXOOOOOOOOOOOOOOOOOO...OOOXXXXXXXXXXXXXXX..OOO",
"   .......ooooooooooooooooXXXXXXXXXXXXXXXXXXXXXXXXXXXXXXXXXXXXXXXXXXXXXXXXXXXXXXXXXXXXXXXXXXXXXXXXXXoo...ooooooooooooo.......XXX",
"   .......ooooooooooooooooXXXXXXXXXXXXXXXXXXXXXXXXXXXXXXXXXXXXXXXXXXXXXXXXXXXXXXXXXXXXXXXXXXXXXXXXXXoo...ooooooooooooo.......XXX",
"   .......ooooooooooooooooXXXXXXXXXXXXXXXXXXXXXXXXXXXXXXXXXXXXXXXXXXXXXXXXXXXXXXXXXXXXXXXXXXXXXXXXXXoo...ooooooooooooo.......XXX",
"   oooooXXXXXXXXXXOOoooOOOOOOOOOOOOOOOOOOXXXOOOOOOOOOOOOOOOOOXXXOOOOOOOOOOOOOOOOOOXXOOOOOOOOOOOOOOOOOO...XXXXXXXXXXXXXXXXXX..OOO",
"   oooooXXXXXXXXXXOOoooOOOOOOOOOOOOOOOOOOXXXOOOOOOOOOOOOOOOOOXXXOOOOOOOOOOOOOOOOOOXXOOOOOOOOOOOOOOOOOO...XXXXXXXXXXXXXXXXXX..OOO",
"   oooooXXXXXXXXXXOOoooOOOOOOOOOOOOOOOOOOXXXOOOOOOOOOOOOOOOOOXXXOOOOOOOOOOOOOOOOOOXXOOOOOOOOOOOOOOOOOO...XXXXXXXXXXXXXXXXXX..OOO",
"   oooooXXXXXXXXXXOOoooOOOOOOOOOOOOOOOOOOXXXOOOOOOOOOOOOOOOOOXXXOOOOOOOOOOOOOOOOOOXXOOOOOOOOOOOOOOOOOOoooXXXXXXXXXXXXXXXXXX..OOO",
"   oooooXXXXXXXXXXOOoooOOOOOOOOOOOOOOOOOOXXXOOOOOOOOOOOOOOOOOXXXOOOOOOOOOOOOOOOOOOXXOOOOOOOOOOOOOOOOOOoooXXXXXXXXXXXXXXXXXX..OOO",
"   oooooXXXXXXXXXXOOoooOOOOOOOOOOOOOOOOOOXXXOOOOOOOOOOOOOOOOOXXXOOOOOOOOOOOOOOOOOOXXOOOOOOOOOOOOOOOOOOoooXXXXXXXXXXXXXXXXXX..OOO",
"   oooooXXXXXXXXXXOOoooOOOOOOOOOOOOOOOOOOXXXOOOOOOOOOOOOOOOOOXXXOOOOOOOOOOOOOOOOOOXXOOOOOOOOOOOOOOOOOOoooXXXXXXXXXXXXXXXXXX..OOO",
"   oooooXXXXXXXXXXOOoooOOOOOOOOOOOOOOOOOOXXXOOOOOOOOOOOOOOOOOXXXOOOOOOOOOOOOOOOOOOXXOOOOOOOOOOOOOOOOOOoooXXXXXXXXXXXXXXXXXX..OOO",
"   oooooXXXXXXXXXXOOoooOOOOOOOOOOOOOOOOOOXXXOOOOOOOOOOOOOOOOOXXXOOOOOOOOOOOOOOOOOOXXOOOOOOOOOOOOOOOOOOoooXXXXXXXXXXXXXXXXXX..OOO",
"   oooooXXXXXXXXXXOOoooOOOOOOOOOOOOOOOOOOXXXOOOOOOOOOOOOOOOOOXXXOOOOOOOOOOOOOOOOOOXXOOOOOOOOOOOOOOOOOOoooXXXXXXXXXXXXXXXXXX..OOO",
"   oooooXXXXXXXXXXOOoooOOOOOOOOOOOOOOOOOOXXXOOOOOOOOOOOOOOOOOXXXOOOOOOOOOOOOOOOOOOXXOOOOOOOOOOOOOOOOOOoooXXXXXXXXXXXXXXXXXX..OOO",
"   oooooXXXXXXXXXXOOoooOOOOOOOOOOOOOOOOOOXXXOOOOOOOOOOOOOOOOOXXXOOOOOOOOOOOOOOOOOOXXOOOOOOOOOOOOOOOOOOoooXXXXXXXXXXXXXXXXXX..OOO",
"   oooooXXXXXXXXXXOOoooOOOOOOOOOOOOOOOOOOXXXOOOOOOOOOOOOOOOOOXXXOOOOOOOOOOOOOOOOOOXXOOOOOOOOOOOOOOOOOOoooXXXXXXXXXXXXXXXXXX..OOO",
"   oooooXXXXXXXXXXOOoooOOOOOOOOOOOOOOOOOOXXXOOOOOOOOOOOOOOOOOXXXOOOOOOOOOOOOOOOOOOXXOOOOOOOOOOOOOOOOOOoooXXXXXXXXXXXXXXXXXX..OOO",
"   oooooXXXXXXXXXXOOoooOOOOOOOOOOOOOOOOOOXXXOOOOOOOOOOOOOOOOOXXXOOOOOOOOOOOOOOOOOOXXOOOOOOOOOOOOOOOOOOoooXXXXXXXXXXXXXXXXXX..OOO",
"   oooooXXXXXXXXXXOOoooOOOOOOOOOOOOOOOOOOXXXOOOOOOOOOOOOOOOOOXXXOOOOOOOOOOOOOOOOOOXXOOOOOOOOOOOOOOOOOOoooXXXXXXXXXXXXXXXXXX..OOO",
"   oooooXXXXXXXXXXOOoooOOOOOOOOOOOOOOOOOOXXXOOOOOOOOOOOOOOOOOXXXOOOOOOOOOOOOOOOOOOXXOOOOOOOOOOOOOOOOOOoooXXXXXXXXXXXXXXXXXX..OOO",
"   oooooXXXXXXXXXXOOoooOOOOOOOOOOOOOOOOOOXXXOOOOOOOOOOOOOOOOOXXXOOOOOOOOOOOOOOOOOOXXOOOOOOOOOOOOOOOOOOoooXXXXXXXXXXXXXXXXXX..OOO",
"   .......oooooooooooooXXXXXXXXXXXXXXXXXXXXXXXXXXXXXXXXXXXXXXXXXXXXXXXXXXXXXXXXXXXXXXXXXXXXXXXXXXXXXXXoooooooooooooooo.......XXX",
"   .......oooooooooooooXXXXXXXXXXXXXXXXXXXXXXXXXXXXXXXXXXXXXXXXXXXXXXXXXXXXXXXXXXXXXXXXXXXXXXXXXXXXXXXoooooooooooooooo.......XXX",
"   .....XXXXXXXXXXXXoooOOOOOOOOOOOOOOOOOOXXXOOOOOOOOOOOOOOOOOXXXOOOOOOOOOOOOOOOOOOXXOOOOOOOOOOOOOOOOOOoooOOOXXXXXXXXXXXXXXX..OOO",
"   .....XXXXXXXXXXXXoooOOOOOOOOOOOOOOOOOOXXXOOOOOOOOOOOOOOOOOXXXOOOOOOOOOOOOOOOOOOXXOOOOOOOOOOOOOOOOOOoooOOOXXXXXXXXXXXXXXX..OOO",
"   .....XXXXXXXXXXXXoooOOOOOOOOOOOOOOOOOOXXXOOOOOOOOOOOOOOOOOXXXOOOOOOOOOOOOOOOOOOXXOOOOOOOOOOOOOOOOOOoooOOOXXXXXXXXXXXXXXX..OOO",
"   .....XXXXXXXXXXXXoooOOOOOOOOOOOOOOOOOOXXXOOOOOOOOOOOOOOOOOXXXOOOOOOOOOOOOOOOOOOXXOOOOOOOOOOOOOOOOOOoooOOOXXXXXXXXXXXXXXX..OOO",
"   .....XXXXXXXXXXXXoooOOOOOOOOOOOOOOOOOOXXXOOOOOOOOOOOOOOOOOXXXOOOOOOOOOOOOOOOOOOXXOOOOOOOOOOOOOOOOOOoooOOOXXXXXXXXXXXXXXX..OOO",
"   .....XXXXXXXXXXXXoooOOOOOOOOOOOOOOOOOOXXXOOOOOOOOOOOOOOOOOXXXOOOOOOOOOOOOOOOOOOXXOOOOOOOOOOOOOOOOOOoooOOOXXXXXXXXXXXXXXX..OOO",
"   oooooXXXXXXXXXXXXoooOOOOOOOOOOOOOOOOOOXXXOOOOOOOOOOOOOOOOOXXXOOOOOOOOOOOOOOOOOOXXOOOOOOOOOOOOOOOOOOoooOOOXXXXXXXXXXXXXXX..OOO",
"   oooooXXXXXXXXXXXXoooOOOOOOOOOOOOOOOOOOXXXOOOOOOOOOOOOOOOOOXXXOOOOOOOOOOOOOOOOOOXXOOOOOOOOOOOOOOOOOOoooOOOXXXXXXXXXXXXXXX..OOO",
"   .....XXXXXXXXXXXXoooOOOOOOOOOOOOOOOOOOXXXOOOOOOOOOOOOOOOOOXXXOOOOOOOOOOOOOOOOOOXXOOOOOOOOOOOOOOOOOOoooOOOXXXXXXXXXXXXXXX..OOO",
"   .....XXXXXXXXXXXXoooOOOOOOOOOOOOOOOOOOXXXOOOOOOOOOOOOOOOOOXXXOOOOOOOOOOOOOOOOOOXXOOOOOOOOOOOOOOOOOOoooOOOXXXXXXXXXXXXXXX..OOO",
"   .....XXXXXXXXXXXXoooOOOOOOOOOOOOOOOOOOXXXOOOOOOOOOOOOOOOOOXXXOOOOOOOOOOOOOOOOOOXXOOOOOOOOOOOOOOOOOOoooOOOXXXXXXXXXXXXXXX..OOO",
"   oooooXXXXXXXXXXXXoooOOOOOOOOOOOOOOOOOOXXXOOOOOOOOOOOOOOOOOXXXOOOOOOOOOOOOOOOOOOXXOOOOOOOOOOOOOOOOOOoooOOOXXXXXXXXXXXXXXX..OOO",
"   oooooXXXXXXXXXXXXoooOOOOOOOOOOOOOOOOOOXXXOOOOOOOOOOOOOOOOOXXXOOOOOOOOOOOOOOOOOOXXOOOOOOOOOOOOOOOOOOoooOOOXXXXXXXXXXXXXXX..OOO",
"   oooooXXXXXXXXXXXXoooOOOOOOOOOOOOOOOOOOXXXOOOOOOOOOOOOOOOOOXXXOOOOOOOOOOOOOOOOOOXXOOOOOOOOOOOOOOOOOO...OOOXXXXXXXXXXXXXXX..OOO",
"   oooooXXXXXXXXXXXXoooOOOOOOOOOOOOOOOOOOXXXOOOOOOOOOOOOOOOOOXXXOOOOOOOOOOOOOOOOOOXXOOOOOOOOOOOOOOOOOO...OOOXXXXXXXXXXXXXXX..OOO",
"   oooooXXXXXXXXXXXXoooOOOOOOOOOOOOOOOOOOXXXOOOOOOOOOOOOOOOOOXXXOOOOOOOOOOOOOOOOOOXXOOOOOOOOOOOOOOOOOO...OOOXXXXXXXXXXXXXXX..OOO",
"   oooooXXXXXXXXXXXXoooOOOOOOOOOOOOOOOOOOXXXOOOOOOOOOOOOOOOOOXXXOOOOOOOOOOOOOOOOOOXXOOOOOOOOOOOOOOOOOO...OOOXXXXXXXXXXXXXXX..OOO",
"   oooooXXXXXXXXXXXXoooOOOOOOOOOOOOOOOOOOXXXOOOOOOOOOOOOOOOOOXXXOOOOOOOOOOOOOOOOOOXXOOOOOOOOOOOOOOOOOO...OOOXXXXXXXXXXXXXXX..OOO",
"   .......ooooooooooooooooXXXXXXXXXXXXXXXXXXXXXXXXXXXXXXXXXXXXXXXXXXXXXXXXXXXXXXXXXXXXXXXXXXXXXXXXXXoo...ooooooooooooo.......XXX",
"   .......ooooooooooooooooXXXXXXXXXXXXXXXXXXXXXXXXXXXXXXXXXXXXXXXXXXXXXXXXXXXXXXXXXXXXXXXXXXXXXXXXXXoo...ooooooooooooo.......XXX",
"   .......ooooooooooooooooXXXXXXXXXXXXXXXXXXXXXXXXXXXXXXXXXXXXXXXXXXXXXXXXXXXXXXXXXXXXXXXXXXXXXXXXXXoo...ooooooooooooo.......XXX",
"   oooooXXXXXXXXXXOOoooOOOOOOOOOOOOOOOOOOXXXOOOOOOOOOOOOOOOOOXXXOOOOOOOOOOOOOOOOOOXXOOOOOOOOOOOOOOOOOO...XXXXXXXXXXXXXXXXXX..OOO",
"   oooooXXXXXXXXXXOOoooOOOOOOOOOOOOOOOOOOXXXOOOOOOOOOOOOOOOOOXXXOOOOOOOOOOOOOOOOOOXXOOOOOOOOOOOOOOOOOO...XXXXXXXXXXXXXXXXXX..OOO",
"   oooooXXXXXXXXXXOOoooOOOOOOOOOOOOOOOOOOXXXOOOOOOOOOOOOOOOOOXXXOOOOOOOOOOOOOOOOOOXXOOOOOOOOOOOOOOOOOO...XXXXXXXXXXXXXXXXXX..OOO",
"   oooooXXXXXXXXXXOOoooOOOOOOOOOOOOOOOOOOXXXOOOOOOOOOOOOOOOOOXXXOOOOOOOOOOOOOOOOOOXXOOOOOOOOOOOOOOOOOOoooXXXXXXXXXXXXXXXXXX..OOO",
"   oooooXXXXXXXXXXOOoooOOOOOOOOOOOOOOOOOOXXXOOOOOOOOOOOOOOOOOXXXOOOOOOOOOOOOOOOOOOXXOOOOOOOOOOOOOOOOOOoooXXXXXXXXXXXXXXXXXX..OOO",
"   oooooXXXXXXXXXXOOoooOOOOOOOOOOOOOOOOOOXXXOOOOOOOOOOOOOOOOOXXXOOOOOOOOOOOOOOOOOOXXOOOOOOOOOOOOOOOOOOoooXXXXXXXXXXXXXXXXXX..OOO",
"   oooooXXXXXXXXXXOOoooOOOOOOOOOOOOOOOOOOXXXOOOOOOOOOOOOOOOOOXXXOOOOOOOOOOOOOOOOOOXXOOOOOOOOOOOOOOOOOOoooXXXXXXXXXXXXXXXXXX..OOO",
"   oooooXXXXXXXXXXOOoooOOOOOOOOOOOOOOOOOOXXXOOOOOOOOOOOOOOOOOXXXOOOOOOOOOOOOOOOOOOXXOOOOOOOOOOOOOOOOOOoooXXXXXXXXXXXXXXXXXX..OOO",
"   .....ooooooooooXX...XXXXXXXXXXXXXXXXXXoooXXXXXXXXXXXXXXXXXoooXXXXXXXXXXXXXXXXXXooXXXXXXXXXXXXXXXXXX...oooooooooooooooooo..OOO",
"   .....ooooooooooXX...XXXXXXXXXXXXXXXXXXoooXXXXXXXXXXXXXXXXXoooXXXXXXXXXXXXXXXXXXooXXXXXXXXXXXXXXXXXX...oooooooooooooooooo..OOO",
"   .....ooooooooooXX...XXXXXXXXXXXXXXXXXXoooXXXXXXXXXXXXXXXXXoooXXXXXXXXXXXXXXXXXXooXXXXXXXXXXXXXXXXXX...oooooooooooooooooo..OOO",
"   .....ooooooooooXX...XXXXXXXXXXXXXXXXXXoooXXXXXXXXXXXXXXXXXoooXXXXXXXXXXXXXXXXXXooXXXXXXXXXXXXXXXXXX...oooooooooooooooooo..OOO",
"   .....ooooooooooXX...XXXXXXXXXXXXXXXXXXoooXXXXXXXXXXXXXXXXXoooXXXXXXXXXXXXXXXXXXooXXXXXXXXXXXXXXXXXX...oooooooooooooooooo..OOO",
"   .....ooooooooooXX...XXXXXXXXXXXXXXXXXXoooXXXXXXXXXXXXXXXXXoooXXXXXXXXXXXXXXXXXXooXXXXXXXXXXXXXXXXXX...oooooooooooooooooo..OOO",
"   .....ooooooooooXX...XXXXXXXXXXXXXXXXXXoooXXXXXXXXXXXXXXXXXoooXXXXXXXXXXXXXXXXXXooXXXXXXXXXXXXXXXXXX...oooooooooooooooooo..OOO",
"   .......................oooooooooooooooooooooooooooooooooooooooooooooooooooooooooooooooooooooooooo.........................OOO",
"   .......................oooooooooooooooooooooooooooooooooooooooooooooooooooooooooooooooooooooooooo.........................OOO",
"   .......................oooooooooooooooooooooooooooooooooooooooooooooooooooooooooooooooooooooooooo.........................OOO",
"   .........................................XXXXXXXXXXXXooooooooooooooooooooooooooooXXXXXXXXXXXXXXXXXXXXXXXXXXXXXXXXXXXXXXXXXooo",
"   .........................................XXXXXXXXXXXXooooooooooooooooooooooooooooXXXXXXXXXXXXXXXXXXXXXXXXXXXXXXXXXXXXXXXXXooo",
"   ooooooo...oo...oo...oooooooooooooooooo...OOOOOOOOOOOOOOOOOoooXXXXXXXXXXXXXXXXXXoo##################XXX##################XXooo",
"   ooooooo...oo...oo...oooooooooooooooooo...OOOOOOOOOOOOOOOOOoooXXXXXXXXXXXXXXXXXXoo##################XXX##################XXooo",
"   ooooooo...oo...oo...oooooooooooooooooo...OOOOOOOOOOOOOOOOOoooXXXXXXXXXXXXXXXXXXoo##################XXX##################XXooo"
};
