/* XPM */
static char *result[] = {
/* columns rows colors chars-per-pixel */
"64 64 23 1 ",
"  c #26211D",
". c #502417",
"X c #5E351E",
"o c #6B3633",
"O c #3C5014",
"+ c #41671F",
"@ c #734630",
"# c #427D76",
"$ c #7F7D7C",
"% c #AC302A",
"& c #C74D39",
"* c #854440",
"= c #855B40",
"- c #AE5F5B",
"; c #DB764F",
": c #CD906D",
"> c #A7958A",
", c #A7A49F",
"< c #B2AD93",
"1 c #F0C090",
"2 c #D2C6BF",
"3 c #EDE4CC",
"4 c None",
/* pixels */
"4444444444444444444444444444444444444444444444444444444444444444",
"4444444444444444444444444444444444444444444444444444444444444444",
"4444444444444444444444444444444444444444444444444444444444444444",
"4444444444444444444444444444444444444444444444444444444444444444",
"4444444444444444444444444444444444444444444444444444444444444444",
"4444444444444444444444444444444444444444444444444444444444444444",
"4444444444444444444444444444444444444444444444444444444444444444",
"4444444444444444444444444444444444444444444444444444444444444444",
"4444444444444444444444444444444444444444444444444444444444444444",
"4444444444444444444444444444444444444444444444444444444444444444",
"4444444444444444444444444444444444444444444444444444444444444444",
"4444444444444444444444444444444444444444444444444444444444444444",
"4444444444444444444444444444444444444444444444444444444444444444",
"4444444444444444444444444444444444444444444444444444444444444444",
"4444444444444444444444444444444444444444444444444444444444444444",
"4444444444444444444444444444444444444444444444444444444444444444",
"4444444444444444444444444444444444444444444444444444444444444444",
"4444444444444444444444444444444444444444444444444444444444444444",
"4444444444444444444444444444444444444444444444444444444444444444",
"4444444444444444444444444444444444444444444444444444444444444444",
"4444444444444444444444444444444444444444444444444444444444444444",
"4444444444444444444444444444444444444444444444444444444444444444",
"4444444444444444444444444444444444444444444444444444444444444444",
"4444444444444444444444444444444444   444444444444444444444444444",
"444444444444444444444444444 4     ;;; 44444444444444444444444444",
"44444444444444444444444444 & ;;;;;&&& 44444444444444444444444444",
"444444444444444444444444 44 ;&&&&&&&& 44444444444444444444444444",
"44444444444444444444444 = 4 &&&&&&&&& 44444444444444444444444444",
"4444444444444444444444 4 =  %&&%%%%%% 44444444444444444444444444",
"444444444444444444444 = =@  %&%::::: 444444444444444444444444444",
"444444444444444444444, =@@ 11%:11111 444444444444444444444444444",
"444444444444444444444,4   @ 1%:#11#1 444444444444444444444444444",
"444444444444444444444,4$44   ::11111 444444444444444444444444444",
"44444444444444444444,44,444 -*:11:11 444444444444444444444444444",
"44444444444444444444,,,444  *O++O3O+ 444444444444444444444444444",
"4444444444444444444444444 o *+++<3O+1 44444444444444444444444444",
"44444444444444444444444444  *+OO..XO1 44444444444444444444444444",
"444444444444444444444444444 +O11  XX 422444444444444444444444444",
"4444444444444444444444444444    444  >>2444444444444444444444444",
"4444444444444444444444444444444444444444444444444444444444444444",
"4444444444444444444444444444444444444444444444444444444444444444",
"4444444444444444444444444444444444444444444444444444444444444444",
"4444444444444444444444444444444444444444444444444444444444444444",
"4444444444444444444444444444444444444444444444444444444444444444",
"4444444444444444444444444444444444444444444444444444444444444444",
"4444444444444444444444444444444444444444444444444444444444444444",
"4444444444444444444444444444444444444444444444444444444444444444",
"4444444444444444444444444444444444444444444444444444444444444444",
"4444444444444444444444444444444444444444444444444444444444444444",
"4444444444444444444444444444444444444444444444444444444444444444",
"4444444444444444444444444444444444444444444444444444444444444444",
"4444444444444444444444444444444444444444444444444444444444444444",
"4444444444444444444444444444444444444444444444444444444444444444",
"4444444444444444444444444444444444444444444444444444444444444444",
"4444444444444444444444444444444444444444444444444444444444444444",
"4444444444444444444444444444444444444444444444444444444444444444",
"4444444444444444444444444444444444444444444444444444444444444444",
"4444444444444444444444444444444444444444444444444444444444444444",
"4444444444444444444444444444444444444444444444444444444444444444",
"4444444444444444444444444444444444444444444444444444444444444444",
"4444444444444444444444444444444444444444444444444444444444444444",
"4444444444444444444444444444444444444444444444444444444444444444",
"4444444444444444444444444444444444444444444444444444444444444444",
"4444444444444444444444444444444444444444444444444444444444444444"
};
