/* XPM */
static char *result[] = {
/* columns rows colors chars-per-pixel */
"128 128 10 1 ",
"  c #343C45",
". c #394554",
"X c #2B3037",
"o c #141412",
"O c #24282C",
"+ c #191C1E",
"@ c #465669",
"# c #242A36",
"$ c #3B535E",
"% c #5C8EA5",
/* pixels */
"        ....   ...............................                      ....    ..............................                      ",
"        ....   ...............................                      ....    ..............................                      ",
"        ....   ...............................                      ....    ..............................                      ",
"        ....   ...............................                      ....    ..............................                      ",
"XXXXXXXXXXXXXXXXXXXXXXXXXXXXXXXXXXXXXXXXXXXXXXXXXXXXXXXXXXXXXXXXXXXXXXXXXXXXXXXXXXXXXXXXXXXXXXXXXXXXXXXXXXXXXXXXXXXXXXXXXXXXXXXX",
"XXXXXXXXXXXXXXXXXXXXXXXXXXXXXXXXXXXXXXXXXXXXXXXXXXXXXXXXXXXXXXXXXXXXXXXXXXXXXXXXXXXXXXXXXXXXXXXXXXXXXXXXXXXXXXXXXXXXXXXXXXXXXXXX",
"XXXXXXXXXXXXXXXXXXXXXXXXXXXXXXXXXXXXXXXXXXXXXXXXXXXXXXXXXXXXXXXXXXXXXXXXXXXXXXXXXXXXXXXXXXXXXXXXXXXXXXXXXXXXXXXXXXXXXXXXXXXXXXXX",
"XXXXXXXXXXXXXXXXXXXXXXXXXXXXXXXXXXXXXXXXXXXXXXXXXXXXXXXXXXXXXXXXXXXXXXXXXXXXXXXXXXXXXXXXXXXXXXXXXXXXXXXXXXXXXXXXXXXXXXXXXXXXXXXX",
"oooooooooooooooooooooooooooooooooooooooooooooooooooooooooooooooooooooooooooooooooooooooooooooooooooooooooooooooooooooooooooooooo",
"oooooooooooooooooooooooooooooooooooooooooooooooooooooooooooooooooooooooooooooooooooooooooooooooooooooooooooooooooooooooooooooooo",
"oooooooooooooooooooooooooooooooooooooooooooooooooooooooooooooooooooooooooooooooooooooooooooooooooooooooooooooooooooooooooooooooo",
"OOOOOOOOOOOOOOOOOOOOOOOOOOOOOOOOOO++++OOOOOOOOOOOOOOOOOOOOOOOOOOOOOOOOOOOOOOOOOOOOOOOOOOOOOOOO++++OOOOOOOOOOOOOOOOOOOOOOOOOOOOOO",
"OOOOOOOOOOOOOOOOOOOOOOOOOOOOOOOOOO++++OOOOOOOOOOOOOOOOOOOOOOOOOOOOOOOOOOOOOOOOOOOOOOOOOOOOOOOO++++OOOOOOOOOOOOOOOOOOOOOOOOOOOOOO",
"OOOOOOOOOOOOOOOOOOOOOOOOOOOOOOOOOO++++OOOOOOOOOOOOOOOOOOOOOOOOOOOOOOOOOOOOOOOOOOOOOOOOOOOOOOOO++++OOOOOOOOOOOOOOOOOOOOOOOOOOOOOO",
"OOOOOOOOOOOOOOOOOOOOOOOOOOOOOOOOOO++++OOOOOOOOOOOOOOOOOOOOOOOOOOOOOOOOOOOOOOOOOOOOOOOOOOOOOOOO++++OOOOOOOOOOOOOOOOOOOOOOOOOOOOOO",
"OOOOOOOOOOOOOOOOOOOOOOOOOOOOOOOOOO++++OOOOOOOOOOOOOOOOOOOOOOOOOOOOOOOOOOOOOOOOOOOOOOOOOOOOOOOO++++OOOOOOOOOOOOOOOOOOOOOOOOOOOOOO",
"OOOOOOOOOOOOOOOOOOOOOOOOOOOOOOOOOO++++OOOOOOOOOOOOOOOOOOOOOOOOOOOOOOOOOOOOOOOOOOOOOOOOOOOOOOOO++++OOOOOOOOOOOOOOOOOOOOOOOOOOOOOO",
"OOOOOOOOOOOOOOOOOOOOOOOOOOOOOOOOOO++++OOOOOOOOOOOOOOOOOOOOOOOOOOOOOOOOOOOOOOOOOOOOOOOOOOOOOOOO++++OOOOOOOOOOOOOOOOOOOOOOOOOOOOOO",
"OOOOOOOOOOOOOOOOOOOOOOOOOOOOOOOOOO++++OOOOOOOOOOOOOOOOOOOOOOOOOOOOOOOOOOOOOOOOOOOOOOOOOOOOOOOO++++OOOOOOOOOOOOOOOOOOOOOOOOOOOOOO",
"++++++++++++++++++++++++++++++++++++++++++++++++++++++++++++++++++++++++++++++++++++++++++++++++++++++++++++++++++++++++++++++++",
"++++++++++++++++++++++++++++++++++++++++++++++++++++++++++++++++++++++++++++++++++++++++++++++++++++++++++++++++++++++++++++++++",
"++++++++++++++++++++++++++++++++++++++++++++++++++++++++++++++++++++++++++++++++++++++++++++++++++++++++++++++++++++++++++++++++",
"++++++++++++++++++++++++++++++++++++++++++++++++++++++++++++++++++++++++++++++++++++++++++++++++++++++++++++++++++++++++++++++++",
"XXXXXXXX++++                              XXXX   XXXXXXXXXXXXXXXXXXX++++                              XXXX    XXXXXXXXXXXXXXXXXX",
"XXXXXXXX++++                              XXXX   XXXXXXXXXXXXXXXXXXX++++                              XXXX    XXXXXXXXXXXXXXXXXX",
"XXXXXXXX++++                              XXXX   XXXXXXXXXXXXXXXXXXX++++                              XXXX    XXXXXXXXXXXXXXXXXX",
"XXXXXXXXOOOO                              XXXX   XXXXXXXXXXXXXXXXXXXOOOO                              XXXX    XXXXXXXXXXXXXXXXXX",
"XXXXXXXXOOOO                              XXXX   XXXXXXXXXXXXXXXXXXXOOOO                              XXXX    XXXXXXXXXXXXXXXXXX",
"XXXXXXXXOOOO                              XXXX   XXXXXXXXXXXXXXXXXXXOOOO                              XXXX    XXXXXXXXXXXXXXXXXX",
"XXXXXXXXOOOO                              XXXX   XXXXXXXXXXXXXXXXXXXOOOO                              XXXX    XXXXXXXXXXXXXXXXXX",
"XXXXXXXXOOOO                              XXXX   XXXXXXXXXXXXXXXXXXXOOOO                              XXXX    XXXXXXXXXXXXXXXXXX",
"XXXXXXXXOOOO                              XXXX   XXXXXXXXXXXXXXXXXXXOOOO                              XXXX    XXXXXXXXXXXXXXXXXX",
"XXXXXXXXOOOO                              XXXX   XXXXXXXXXXXXXXXXXXXOOOO                              XXXX    XXXXXXXXXXXXXXXXXX",
"XXXXXXXXOOOO                              XXXX   XXXXXXXXXXXXXXXXXXXOOOO                              XXXX    XXXXXXXXXXXXXXXXXX",
"OOOOOOOOOOOOOOOOOOOOOOOOOOOOOOOOOOOOOOOOOOOOOOOOOOOOOOOOOOOOOOOOOOOOOOOOOOOOOOOOOOOOOOOOOOOOOOOOOOOOOOOOOOOOOOOOOOOOOOOOOOOOOOOO",
"OOOOOOOOOOOOOOOOOOOOOOOOOOOOOOOOOOOOOOOOOOOOOOOOOOOOOOOOOOOOOOOOOOOOOOOOOOOOOOOOOOOOOOOOOOOOOOOOOOOOOOOOOOOOOOOOOOOOOOOOOOOOOOOO",
"OOOOOOOOOOOOOOOOOOOOOOOOOOOOOOOOOOOOOOOOOOOOOOOOOOOOOOOOOOOOOOOOOOOOOOOOOOOOOOOOOOOOOOOOOOOOOOOOOOOOOOOOOOOOOOOOOOOOOOOOOOOOOOOO",
"OOOOOOOOOOOOOOOOOOOOOOOOOOOOOOOOOOOOOOOOOOOOOOOOOOOOOOOOOOOOOOOOOOOOOOOOOOOOOOOOOOOOOOOOOOOOOOOOOOOOOOOOOOOOOOOOOOOOOOOOOOOOOOOO",
"                                  XXXX...............    ....                                 XXXX...............    ....       ",
"                                  XXXX...............    ....                                 XXXX...............    ....       ",
"                                  XXXX...............    ....                                 XXXX...............    ....       ",
"                                  XXXX...............    ....                                 XXXX...............    ....       ",
"                                  XXXX...............    ....                                 XXXX...............    ....       ",
"                                  XXXX...............    ....                                 XXXX...............    ....       ",
"                                  XXXX...............    ....                                 XXXX...............    ....       ",
"                                  OOOO...............    ....                                 OOOO...............    ....       ",
"                                  OOOO...............    ....                                 OOOO...............    ....       ",
"                                  OOOO...............    ....                                 OOOO...............    ....       ",
"                                  OOOO...............    ....                                 OOOO...............    ....       ",
"XXXXXXXXXXXXXXXXXXXXXXXOOOOOOOOOOOOOOOOOOOOOOOOOOXXXXXXXXXXXXXXXXXXXXXXXXXXXXXXXXXXOOOOOOOOOOOOOOOOOOOOOOOOOOOXXXXXXXXXXXXXXXXXX",
"XXXXXXXXXXXXXXXXXXXXXXXOOOOOOOOOOOOOOOOOOOOOOOOOOXXXXXXXXXXXXXXXXXXXXXXXXXXXXXXXXXXOOOOOOOOOOOOOOOOOOOOOOOOOOOXXXXXXXXXXXXXXXXXX",
"XXXXXXXXXXXXXXXXXXXXXXXOOOOOOOOOOOOOOOOOOOOOOOOOOXXXXXXXXXXXXXXXXXXXXXXXXXXXXXXXXXXOOOOOOOOOOOOOOOOOOOOOOOOOOOXXXXXXXXXXXXXXXXXX",
"XXXXXXXXXXXXXXXXXXXXXXXOOOOOOOOOOOOOOOOOOOOOOOOOOXXXXXXXXXXXXXXXXXXXXXXXXXXXXXXXXXXOOOOOOOOOOOOOOOOOOOOOOOOOOOXXXXXXXXXXXXXXXXXX",
"........XXXX........................................................XXXX........................................................",
"........XXXX........................................................XXXX........................................................",
"........XXXX........................................................XXXX........................................................",
"........XXXX                                     ...................XXXX                                      ..................",
"........XXXX                                     ...................XXXX                                      ..................",
"........XXXX                                     ...................XXXX                                      ..................",
"........XXXX                                     ...................XXXX                                      ..................",
"........OOOO                                     ...................OOOO                                      ..................",
"........OOOO                                     ...................OOOO                                      ..................",
"........OOOO                                     ...................OOOO                                      ..................",
"........OOOO                                     ...................OOOO                                      ..................",
"OOOOOOOOOOOOOOOOOOOOOOOOOOOOOOOOOOOOOOOOOOOOOOOOOOOOOOOOOOOOOOOOOOOOOOOOOOOOOOOOOOOOOOOOOOOOOOOOOOOOOOOOOOOOOOOOOOOOOOOOOOOOOOOO",
"OOOOOOOOOOOOOOOOOOOOOOOOOOOOOOOOOOOOOOOOOOOOOOOOOOOOOOOOOOOOOOOOOOOOOOOOOOOOOOOOOOOOOOOOOOOOOOOOOOOOOOOOOOOOOOOOOOOOOOOOOOOOOOOO",
"OOOOOOOOOOOOOOOOOOOOOOOOOOOOOOOOOOOOOOOOOOOOOOOOOOOOOOOOOOOOOOOOOOOOOOOOOOOOOOOOOOOOOOOOOOOOOOOOOOOOOOOOOOOOOOOOOOOOOOOOOOOOOOOO",
"OOOOOOOOOOOOOOOOOOOOOOOOOOOOOOOOOOOOOOOOOOOOOOOOOOOOOOOOOOOOOOOOOOOOOOOOOOOOOOOOOOOOOOOOOOOOOOOOOOOOOOOOOOOOOOOOOOOOOOOOOOOOOOOO",
"                                  OOOO...................                                     OOOO...................           ",
"                                  OOOO...................                                     OOOO...................           ",
"                                  OOOO...................                                     OOOO...................           ",
"                                  OOOO...................                                     OOOO...................           ",
"XXXXXXXXXXXXXXXXXXXXXXXXXXXXXXXXXXOOOO        XXX    XXXXXXXXXXXXXXXXXXXXXXXXXXXXXXXXXXXXXXXXXOOOO        XXXX   XXXXXXXXXXXXXXX",
"XXXXXXXXXXXXXXXXXXXXXXXXXXXXXXXXXXOOOO        XXX    XXXXXXXXXXXXXXXXXXXXXXXXXXXXXXXXXXXXXXXXXOOOO        XXXX   XXXXXXXXXXXXXXX",
"XXXXXXXXXXXXXXXXXXXXXXXXXXXXXXXXXXOOOO        XXX    XXXXXXXXXXXXXXXXXXXXXXXXXXXXXXXXXXXXXXXXXOOOO        XXXX   XXXXXXXXXXXXXXX",
"XXXXXXXXXXXXXXXXXXXXXXXXXXXXXXXXXX++++        XXX    XXXXXXXXXXXXXXXXXXXXXXXXXXXXXXXXXXXXXXXXX++++        XXXX   XXXXXXXXXXXXXXX",
"XXXXXXXXXXXXXXXXXXXXXXXXXXXXXXXXXX++++        XXX    XXXXXXXXXXXXXXXXXXXXXXXXXXXXXXXXXXXXXXXXX++++        XXXX   XXXXXXXXXXXXXXX",
"XXXXXXXXXXXXXXXXXXXXXXXXXXXXXXXXXX++++        XXX    XXXXXXXXXXXXXXXXXXXXXXXXXXXXXXXXXXXXXXXXX++++        XXXX   XXXXXXXXXXXXXXX",
"XXXXXXXXXXXXXXXXXXXXXXXXXXXXXXXXXX++++        XXX    XXXXXXXXXXXXXXXXXXXXXXXXXXXXXXXXXXXXXXXXX++++        XXXX   XXXXXXXXXXXXXXX",
"++++++++++++++++++++++++++++++++++++++++++++++++++++++++++++++++++++++++++++++++++++++++++++++++++++++++++++++++++++++++++++++++",
"++++++++++++++++++++++++++++++++++++++++++++++++++++++++++++++++++++++++++++++++++++++++++++++++++++++++++++++++++++++++++++++++",
"++++++++++++++++++++++++++++++++++++++++++++++++++++++++++++++++++++++++++++++++++++++++++++++++++++++++++++++++++++++++++++++++",
"++++++++++++++++++++++++++++++++++++++++++++++++++++++++++++++++++++++++++++++++++++++++++++++++++++++++++++++++++++++++++++++++",
"OOOOOOOO++++XXXXXXXXXXXXXXXXXXXXXXXXXXXXXXOOOOXXX....@@@@@@@@@@@@@@@@@@@@@@@...XXXXXXXXXXXXXXXXXXXXXXXOOOOXXXXOOOOOOOOOOOOOOOOOO",
"OOOOOOOO++++XXXXXXXXXXXXXXXXXXXXXXXXXXXXXXOOOOXXX....@@@@@@@@@@@@@@@@@@@@@@@...XXXXXXXXXXXXXXXXXXXXXXXOOOOXXXXOOOOOOOOOOOOOOOOOO",
"OOOOOOOO++++XXXXXXXXXXXXXXXXXXXXXXXXXXXXXXOOOOXXX....@@@@@@@@@@@@@@@@@@@@@@@...XXXXXXXXXXXXXXXXXXXXXXXOOOOXXXXOOOOOOOOOOOOOOOOOO",
"OOOOOOOO++++XXXXXXXXXXXXXXXXXXXXXXXXXXXXXXOOOOXXX....@@@@@@@@@@@@@@@@@@@@@@@...XXXXXXXXXXXXXXXXXXXXXXXOOOOXXXXOOOOOOOOOOOOOOOOOO",
"OOOOOOOO++++XXXXXXXXXXXXXXXXXXXXXXXXXXXXXXOOOO...@@@@@@@@@@@@@@@@@@@@@@@@@@@@@@....XXXXXXXXXXXXXXXXXXXOOOOXXXXOOOOOOOOOOOOOOOOOO",
"OOOOOOOO++++XXXXXXXXXXXXXXXXXXXXXXXXXXXXXXOOOO...@@@@@@@@@@@@@@@@@@@@@@@@@@@@@@....XXXXXXXXXXXXXXXXXXXOOOOXXXXOOOOOOOOOOOOOOOOOO",
"OOOOOOOO++++XXXXXXXXXXXXXXXXXXXXXXXXXXXXXXOOOO...@@@@@@@@@@@@@@@@@@@@@@@@@@@@@@....XXXXXXXXXXXXXXXXXXXOOOOXXXXOOOOOOOOOOOOOOOOOO",
"OOOOOOOO++++XXXXXXXXXXXXXXXXXXXXXXXXXXOOOO....@@@@@@@....OOOOoooooooOOOO....@@@@@@@....OOOOXXXXXXXXXXXOOOOXXXXOOOOOOOOOOOOOOOOOO",
"OOOOOOOO++++XXXXXXXXXXXXXXXXXXXXXXXXXXOOOO....@@@@@@@....OOOOoooooooOOOO....@@@@@@@....OOOOXXXXXXXXXXXOOOOXXXXOOOOOOOOOOOOOOOOOO",
"OOOOOOOO++++XXXXXXXXXXXXXXXXXXXXXXXXXXOOOO....@@@@@@@....OOOOoooooooOOOO....@@@@@@@....OOOOXXXXXXXXXXXOOOOXXXXOOOOOOOOOOOOOOOOOO",
"OOOOOOOO++++XXXXXXXXXXXXXXXXXXXXXXXXXXOOOO....@@@@@@@....OOOOoooooooOOOO....@@@@@@@....OOOOXXXXXXXXXXXOOOOXXXXOOOOOOOOOOOOOOOOOO",
"++++++++++++++++++++++++++++++++++OOOO...........OOOOoooooooooooooooooooooooOOO............OOO++++++++++++++++++++++++++++++++++",
"++++++++++++++++++++++++++++++++++OOOO...........OOOOoooooooooooooooooooooooOOO............OOO++++++++++++++++++++++++++++++++++",
"++++++++++++++++++++++++++++++++++OOOO...........OOOOoooooooooooooooooooooooOOO............OOO++++++++++++++++++++++++++++++++++",
"++++++++++++++++++++++++++++++++++OOOO...........OOOOoooooooooooooooooooooooOOO............OOO++++++++++++++++++++++++++++++++++",
"..............................................ooooooooooo####ooooooo####ooooooooooo.............................................",
"..............................................ooooooooooo####ooooooo####ooooooooooo.............................................",
"..............................................ooooooooooo####ooooooo####ooooooooooo.............................................",
"..............................................ooooooooooo####ooooooo####ooooooooooo.............................................",
"..........................................ooooooooooooooo####ooooooo####ooooooooooooooo.........................................",
"..........................................ooooooooooooooo####ooooooo####ooooooooooooooo.........................................",
"..........................................ooooooooooooooo####ooooooo####ooooooooooooooo.........................................",
"++++++++++++++++++++++++++++++++++++++oooooooo###oooooooo$$$$ooooooo$$$$ooooooo####oooooooo+++++++++++++++++++++++++++++++++++++",
"++++++++++++++++++++++++++++++++++++++oooooooo###oooooooo$$$$ooooooo$$$$ooooooo####oooooooo+++++++++++++++++++++++++++++++++++++",
"++++++++++++++++++++++++++++++++++++++oooooooo###oooooooo$$$$ooooooo$$$$ooooooo####oooooooo+++++++++++++++++++++++++++++++++++++",
"++++++++++++++++++++++++++++++++++++++oooooooo###oooooooo$$$$ooooooo$$$$ooooooo####oooooooo+++++++++++++++++++++++++++++++++++++",
"++++++++++++++++++++++++++++++++++++++oooooooo###oooooooo$$$$ooooooo$$$$ooooooo####oooooooo+++++++++++++++++++++++++++++++++++++",
"++++++++++++++++++++++++++++++++++++++oooooooo###oooooooo$$$$ooooooo$$$$ooooooo####oooooooo+++++++++++++++++++++++++++++++++++++",
"++++++++++++++++++++++++++++++++++++++oooooooo###oooooooo$$$$ooooooo$$$$ooooooo####oooooooo+++++++++++++++++++++++++++++++++++++",
"++++++++++++++++++++++++++++++++++++++oooooooo###oooooooo$$$$ooooooo$$$$ooooooo####oooooooo+++++++++++++++++++++++++++++++++++++",
"++++++++++++++++++++++++++++++++++++++oooooooo$$$oooooooo%%%%ooooooo%%%%ooooooo$$$$oooooooo+++++++++++++++++++++++++++++++++++++",
"++++++++++++++++++++++++++++++++++++++oooooooo$$$oooooooo%%%%ooooooo%%%%ooooooo$$$$oooooooo+++++++++++++++++++++++++++++++++++++",
"++++++++++++++++++++++++++++++++++++++oooooooo$$$oooooooo%%%%ooooooo%%%%ooooooo$$$$oooooooo+++++++++++++++++++++++++++++++++++++",
"++++++++++++++++++++++++++++++++++++++oooooooo$$$oooooooo%%%%ooooooo%%%%ooooooo$$$$oooooooo+++++++++++++++++++++++++++++++++++++",
"......................................oooooooo$$$oooooooo%%%%ooooooo%%%%ooooooo$$$$oooooooo.....................................",
"......................................oooooooo$$$oooooooo%%%%ooooooo%%%%ooooooo$$$$oooooooo.....................................",
"......................................oooooooo$$$oooooooo%%%%ooooooo%%%%ooooooo$$$$oooooooo.....................................",
"++++++++++++++++++++++++++++++++++oooooooooooo%%%oooooooo%%%%ooooooo%%%%ooooooo%%%%ooooooooooo++++++++++++++++++++++++++++++++++",
"++++++++++++++++++++++++++++++++++oooooooooooo%%%oooooooo%%%%ooooooo%%%%ooooooo%%%%ooooooooooo++++++++++++++++++++++++++++++++++",
"++++++++++++++++++++++++++++++++++oooooooooooo%%%oooooooo%%%%ooooooo%%%%ooooooo%%%%ooooooooooo++++++++++++++++++++++++++++++++++",
"++++++++++++++++++++++++++++++++++oooooooooooo%%%oooooooo%%%%ooooooo%%%%ooooooo%%%%ooooooooooo++++++++++++++++++++++++++++++++++",
"++++++++++++++++++++++++++++++++++oooooooooooo%%%oooooooo%%%%ooooooo%%%%ooooooo%%%%ooooooooooo++++++++++++++++++++++++++++++++++",
"++++++++++++++++++++++++++++++++++oooooooooooo%%%oooooooo%%%%ooooooo%%%%ooooooo%%%%ooooooooooo++++++++++++++++++++++++++++++++++",
"++++++++++++++++++++++++++++++++++oooooooooooo%%%oooooooo%%%%ooooooo%%%%ooooooo%%%%ooooooooooo++++++++++++++++++++++++++++++++++",
"++++++++++++++++++++++++++++++++++oooooooooooo%%%oooooooo%%%%ooooooo%%%%ooooooo%%%%ooooooooooo++++++++++++++++++++++++++++++++++"
};
